<?xml version="1.0" encoding="UTF-8" standalone="no"?>
<!DOCTYPE svg PUBLIC "-//W3C//DTD SVG 1.1//EN" "http://www.w3.org/Graphics/SVG/1.1/DTD/svg11.dtd">
<svg width="100%" height="100%" viewBox="0 0 5867 5867" version="1.1" xmlns="http://www.w3.org/2000/svg" xmlns:xlink="http://www.w3.org/1999/xlink" xml:space="preserve" xmlns:serif="http://www.serif.com/" style="fill-rule:evenodd;clip-rule:evenodd;stroke-linejoin:round;stroke-miterlimit:2;">
    <g transform="matrix(1.21091,0,0,1.21091,-618.656,-618.656)">
        <path d="M731.122,1344.32L5135.54,1344.32L5135.54,4038.86L4345.46,4038.86L3667.4,4522.34L731.122,4522.34L731.122,1344.32ZM4834.84,1821.91L4834.84,1645.02L4451.59,1645.02L4451.59,1821.91L4834.84,1821.91ZM4451.59,3083.69L4451.59,3266.47L4834.84,3266.47L4834.84,3083.69L4451.59,3083.69ZM4451.59,2600.2L4451.59,2782.99L4834.84,2782.99L4834.84,2600.2L4451.59,2600.2ZM4451.59,2122.62L4451.59,2305.4L4834.84,2305.4L4834.84,2122.62L4451.59,2122.62ZM3573.07,4221.65L4150.89,3814.81L4150.89,1645.03L1031.83,1645.03L1031.83,4221.65L3573.07,4221.65L3573.07,4221.65ZM4451.59,3561.28L4451.59,3744.06L4834.84,3744.06L4834.84,3561.28L4451.59,3561.28Z" style="fill-rule:nonzero;"/>
    </g>
</svg>
